<mxfile host="app.diagrams.net" modified="2021-08-01T09:10:30.095Z" agent="5.0 (Macintosh; Intel Mac OS X 10_14_4) AppleWebKit/537.36 (KHTML, like Gecko) Chrome/92.0.4515.107 Safari/537.36" etag="ATCBMPGR90Qknx_mFHSg" version="14.9.2" type="github">
  <diagram id="HZqVJQx8UYSr__OS122P" name="Page-1">
    <mxGraphModel dx="2356" dy="812" grid="1" gridSize="10" guides="1" tooltips="1" connect="1" arrows="1" fold="1" page="1" pageScale="1" pageWidth="850" pageHeight="1100" math="0" shadow="0">
      <root>
        <mxCell id="0" />
        <mxCell id="1" parent="0" />
        <mxCell id="u1fbbWrBZeRMGrVkOF4U-1" value="&lt;font style=&quot;font-size: 25px&quot;&gt;System Design&lt;/font&gt;" style="text;html=1;strokeColor=none;fillColor=none;align=center;verticalAlign=middle;whiteSpace=wrap;rounded=0;" parent="1" vertex="1">
          <mxGeometry x="330" y="40" width="190" height="70" as="geometry" />
        </mxCell>
        <mxCell id="u1fbbWrBZeRMGrVkOF4U-3" value="KRYPTO ARMY" style="text;html=1;strokeColor=none;fillColor=none;align=center;verticalAlign=middle;whiteSpace=wrap;rounded=0;" parent="1" vertex="1">
          <mxGeometry x="385" y="280" width="100" height="50" as="geometry" />
        </mxCell>
        <mxCell id="u1fbbWrBZeRMGrVkOF4U-4" value="" style="rounded=0;whiteSpace=wrap;html=1;" parent="1" vertex="1">
          <mxGeometry x="-130" y="520" width="120" height="60" as="geometry" />
        </mxCell>
        <mxCell id="u1fbbWrBZeRMGrVkOF4U-5" value="Dashboard" style="text;html=1;strokeColor=none;fillColor=none;align=center;verticalAlign=middle;whiteSpace=wrap;rounded=0;" parent="1" vertex="1">
          <mxGeometry x="-110" y="530" width="80" height="40" as="geometry" />
        </mxCell>
        <mxCell id="u1fbbWrBZeRMGrVkOF4U-6" value="" style="endArrow=classic;html=1;" parent="1" edge="1">
          <mxGeometry width="50" height="50" relative="1" as="geometry">
            <mxPoint x="-70" y="580" as="sourcePoint" />
            <mxPoint x="-70" y="680" as="targetPoint" />
          </mxGeometry>
        </mxCell>
        <mxCell id="u1fbbWrBZeRMGrVkOF4U-7" value="" style="shape=image;verticalLabelPosition=bottom;labelBackgroundColor=#ffffff;verticalAlign=top;aspect=fixed;imageAspect=0;image=https://moralis.io/wp-content/uploads/2021/06/cropped-Moralis-Favicon-Glass.png;" parent="1" vertex="1">
          <mxGeometry x="-101" y="680" width="62" height="62" as="geometry" />
        </mxCell>
        <mxCell id="u1fbbWrBZeRMGrVkOF4U-8" value="Moralis API" style="text;html=1;strokeColor=none;fillColor=none;align=center;verticalAlign=middle;whiteSpace=wrap;rounded=0;" parent="1" vertex="1">
          <mxGeometry x="-105" y="750" width="70" height="20" as="geometry" />
        </mxCell>
        <mxCell id="u1fbbWrBZeRMGrVkOF4U-9" value="" style="endArrow=none;html=1;exitX=0.5;exitY=0;exitDx=0;exitDy=0;entryX=-0.018;entryY=0.295;entryDx=0;entryDy=0;entryPerimeter=0;" parent="1" source="u1fbbWrBZeRMGrVkOF4U-4" target="nrVNposP52qdvoXH-JRM-25" edge="1">
          <mxGeometry width="50" height="50" relative="1" as="geometry">
            <mxPoint x="400" y="570" as="sourcePoint" />
            <mxPoint x="200" y="319.96000000000004" as="targetPoint" />
            <Array as="points">
              <mxPoint x="-70" y="200" />
              <mxPoint x="190" y="200" />
            </Array>
          </mxGeometry>
        </mxCell>
        <mxCell id="u1fbbWrBZeRMGrVkOF4U-10" value="" style="rounded=0;whiteSpace=wrap;html=1;" parent="1" vertex="1">
          <mxGeometry x="100" y="520" width="120" height="60" as="geometry" />
        </mxCell>
        <mxCell id="u1fbbWrBZeRMGrVkOF4U-11" value="" style="rounded=0;whiteSpace=wrap;html=1;" parent="1" vertex="1">
          <mxGeometry x="460" y="520" width="120" height="60" as="geometry" />
        </mxCell>
        <mxCell id="u1fbbWrBZeRMGrVkOF4U-12" value="" style="rounded=0;whiteSpace=wrap;html=1;" parent="1" vertex="1">
          <mxGeometry x="835" y="520" width="120" height="60" as="geometry" />
        </mxCell>
        <mxCell id="u1fbbWrBZeRMGrVkOF4U-13" value="Fiat to Crypto" style="text;html=1;strokeColor=none;fillColor=none;align=center;verticalAlign=middle;whiteSpace=wrap;rounded=0;" parent="1" vertex="1">
          <mxGeometry x="120" y="530" width="80" height="40" as="geometry" />
        </mxCell>
        <mxCell id="u1fbbWrBZeRMGrVkOF4U-14" value="Wallet" style="text;html=1;strokeColor=none;fillColor=none;align=center;verticalAlign=middle;whiteSpace=wrap;rounded=0;" parent="1" vertex="1">
          <mxGeometry x="480" y="530" width="80" height="40" as="geometry" />
        </mxCell>
        <mxCell id="u1fbbWrBZeRMGrVkOF4U-15" value="DEX" style="text;html=1;strokeColor=none;fillColor=none;align=center;verticalAlign=middle;whiteSpace=wrap;rounded=0;" parent="1" vertex="1">
          <mxGeometry x="855" y="530" width="80" height="40" as="geometry" />
        </mxCell>
        <mxCell id="u1fbbWrBZeRMGrVkOF4U-17" value="" style="endArrow=classic;html=1;" parent="1" edge="1">
          <mxGeometry width="50" height="50" relative="1" as="geometry">
            <mxPoint x="159.58000000000004" y="580" as="sourcePoint" />
            <mxPoint x="159.58000000000004" y="680" as="targetPoint" />
          </mxGeometry>
        </mxCell>
        <mxCell id="u1fbbWrBZeRMGrVkOF4U-18" value="" style="endArrow=classic;html=1;" parent="1" edge="1">
          <mxGeometry width="50" height="50" relative="1" as="geometry">
            <mxPoint x="520" y="580" as="sourcePoint" />
            <mxPoint x="400" y="918" as="targetPoint" />
          </mxGeometry>
        </mxCell>
        <mxCell id="u1fbbWrBZeRMGrVkOF4U-19" value="" style="endArrow=classic;html=1;" parent="1" edge="1">
          <mxGeometry width="50" height="50" relative="1" as="geometry">
            <mxPoint x="894.58" y="580" as="sourcePoint" />
            <mxPoint x="894.58" y="680" as="targetPoint" />
          </mxGeometry>
        </mxCell>
        <mxCell id="u1fbbWrBZeRMGrVkOF4U-20" value="" style="endArrow=none;html=1;exitX=0.5;exitY=0;exitDx=0;exitDy=0;entryX=0;entryY=0.75;entryDx=0;entryDy=0;" parent="1" source="u1fbbWrBZeRMGrVkOF4U-10" edge="1" target="nrVNposP52qdvoXH-JRM-25">
          <mxGeometry width="50" height="50" relative="1" as="geometry">
            <mxPoint x="340" y="510" as="sourcePoint" />
            <mxPoint x="340" y="320" as="targetPoint" />
            <Array as="points">
              <mxPoint x="160" y="440" />
            </Array>
          </mxGeometry>
        </mxCell>
        <mxCell id="u1fbbWrBZeRMGrVkOF4U-21" value="" style="shape=image;verticalLabelPosition=bottom;labelBackgroundColor=#ffffff;verticalAlign=top;aspect=fixed;imageAspect=0;image=https://cdn-images-1.medium.com/max/500/1*c-LQZvaUJ_ZNh4nk7snAkQ@2x.png;" parent="1" vertex="1">
          <mxGeometry x="90" y="680" width="140" height="56" as="geometry" />
        </mxCell>
        <mxCell id="u1fbbWrBZeRMGrVkOF4U-22" value="" style="shape=image;verticalLabelPosition=bottom;labelBackgroundColor=#ffffff;verticalAlign=top;aspect=fixed;imageAspect=0;image=https://storage.googleapis.com/holdex-posts/ec2e7bcb-2301-4932-a6ce-4181b95b4a9d/7abad6b6-8984-44a5-bef3-b9a0914b1d0f-how-to-install-metamask.png;" parent="1" vertex="1">
          <mxGeometry x="323" y="919.1" width="162" height="79.1" as="geometry" />
        </mxCell>
        <mxCell id="u1fbbWrBZeRMGrVkOF4U-24" value="Moralis API" style="text;html=1;strokeColor=none;fillColor=none;align=center;verticalAlign=middle;whiteSpace=wrap;rounded=0;" parent="1" vertex="1">
          <mxGeometry x="616.62" y="1222" width="70" height="20" as="geometry" />
        </mxCell>
        <mxCell id="u1fbbWrBZeRMGrVkOF4U-25" value="" style="endArrow=classic;html=1;exitX=0.5;exitY=1;exitDx=0;exitDy=0;entryX=0.5;entryY=0;entryDx=0;entryDy=0;" parent="1" source="u1fbbWrBZeRMGrVkOF4U-11" target="nrVNposP52qdvoXH-JRM-2" edge="1">
          <mxGeometry width="50" height="50" relative="1" as="geometry">
            <mxPoint x="530" y="590" as="sourcePoint" />
            <mxPoint x="630" y="910" as="targetPoint" />
          </mxGeometry>
        </mxCell>
        <mxCell id="u1fbbWrBZeRMGrVkOF4U-26" value="" style="shape=image;verticalLabelPosition=bottom;labelBackgroundColor=#ffffff;verticalAlign=top;aspect=fixed;imageAspect=0;image=https://duneanalytics.com/projects/pages/1inch/1inch.svg;" parent="1" vertex="1">
          <mxGeometry x="820" y="680" width="150" height="75" as="geometry" />
        </mxCell>
        <mxCell id="u1fbbWrBZeRMGrVkOF4U-29" value="" style="endArrow=none;html=1;exitX=0.5;exitY=0;exitDx=0;exitDy=0;endFill=0;" parent="1" source="u1fbbWrBZeRMGrVkOF4U-11" edge="1">
          <mxGeometry width="50" height="50" relative="1" as="geometry">
            <mxPoint x="520" y="510" as="sourcePoint" />
            <mxPoint x="440" y="330" as="targetPoint" />
            <Array as="points">
              <mxPoint x="520" y="440" />
              <mxPoint x="443" y="440" />
            </Array>
          </mxGeometry>
        </mxCell>
        <mxCell id="u1fbbWrBZeRMGrVkOF4U-33" value="" style="endArrow=none;html=1;entryX=0.5;entryY=0;entryDx=0;entryDy=0;" parent="1" target="u1fbbWrBZeRMGrVkOF4U-12" edge="1">
          <mxGeometry width="50" height="50" relative="1" as="geometry">
            <mxPoint x="540" y="230" as="sourcePoint" />
            <mxPoint x="580" y="460" as="targetPoint" />
            <Array as="points">
              <mxPoint x="670" y="330" />
            </Array>
          </mxGeometry>
        </mxCell>
        <mxCell id="nrVNposP52qdvoXH-JRM-1" value="&lt;span&gt;eth_sendTransaction&lt;/span&gt;" style="text;html=1;strokeColor=none;fillColor=none;align=left;verticalAlign=middle;whiteSpace=wrap;rounded=0;" vertex="1" parent="1">
          <mxGeometry x="250" y="1139.1" width="164" height="60.9" as="geometry" />
        </mxCell>
        <mxCell id="nrVNposP52qdvoXH-JRM-2" value="" style="shape=image;verticalLabelPosition=bottom;labelBackgroundColor=#ffffff;verticalAlign=top;aspect=fixed;imageAspect=0;image=http://localhost:3000/static/media/main-logo.37fef050.png;" vertex="1" parent="1">
          <mxGeometry x="635" y="922.41" width="80" height="72.48" as="geometry" />
        </mxCell>
        <mxCell id="nrVNposP52qdvoXH-JRM-3" value="&lt;ul&gt;&lt;li&gt;&lt;span&gt;Wallet Creation == HD wallet -BIP32&lt;/span&gt;&lt;/li&gt;&lt;/ul&gt;" style="text;html=1;strokeColor=none;fillColor=none;align=left;verticalAlign=middle;whiteSpace=wrap;rounded=0;" vertex="1" parent="1">
          <mxGeometry x="540" y="980" width="270" height="60.9" as="geometry" />
        </mxCell>
        <mxCell id="nrVNposP52qdvoXH-JRM-4" value="" style="endArrow=classic;html=1;exitX=0.5;exitY=1;exitDx=0;exitDy=0;entryX=0.5;entryY=0;entryDx=0;entryDy=0;" edge="1" parent="1" source="nrVNposP52qdvoXH-JRM-3" target="u1fbbWrBZeRMGrVkOF4U-23">
          <mxGeometry width="50" height="50" relative="1" as="geometry">
            <mxPoint x="830" y="1070" as="sourcePoint" />
            <mxPoint x="880" y="1020" as="targetPoint" />
          </mxGeometry>
        </mxCell>
        <mxCell id="nrVNposP52qdvoXH-JRM-5" value="Create Transaction" style="text;html=1;strokeColor=none;fillColor=none;align=center;verticalAlign=middle;whiteSpace=wrap;rounded=0;rotation=0;" vertex="1" parent="1">
          <mxGeometry x="602.37" y="1280" width="105" height="31.85" as="geometry" />
        </mxCell>
        <mxCell id="nrVNposP52qdvoXH-JRM-6" value="Moralis.web3" style="text;html=1;strokeColor=none;fillColor=none;align=center;verticalAlign=middle;whiteSpace=wrap;rounded=0;" vertex="1" parent="1">
          <mxGeometry x="576.62" y="1290" width="165" height="50" as="geometry" />
        </mxCell>
        <mxCell id="nrVNposP52qdvoXH-JRM-7" value="" style="endArrow=classic;html=1;" edge="1" parent="1">
          <mxGeometry width="50" height="50" relative="1" as="geometry">
            <mxPoint x="656.62" y="1240" as="sourcePoint" />
            <mxPoint x="657" y="1280" as="targetPoint" />
          </mxGeometry>
        </mxCell>
        <mxCell id="nrVNposP52qdvoXH-JRM-9" value="" style="endArrow=classic;html=1;" edge="1" parent="1">
          <mxGeometry width="50" height="50" relative="1" as="geometry">
            <mxPoint x="696.62" y="1330" as="sourcePoint" />
            <mxPoint x="756.62" y="1400" as="targetPoint" />
          </mxGeometry>
        </mxCell>
        <mxCell id="nrVNposP52qdvoXH-JRM-10" value="" style="endArrow=classic;html=1;" edge="1" parent="1">
          <mxGeometry width="50" height="50" relative="1" as="geometry">
            <mxPoint x="656.62" y="1330" as="sourcePoint" />
            <mxPoint x="656.62" y="1400" as="targetPoint" />
          </mxGeometry>
        </mxCell>
        <mxCell id="nrVNposP52qdvoXH-JRM-11" value="" style="endArrow=classic;html=1;" edge="1" parent="1">
          <mxGeometry width="50" height="50" relative="1" as="geometry">
            <mxPoint x="616.62" y="1330" as="sourcePoint" />
            <mxPoint x="536.62" y="1400" as="targetPoint" />
          </mxGeometry>
        </mxCell>
        <mxCell id="nrVNposP52qdvoXH-JRM-13" value="" style="shape=image;verticalLabelPosition=bottom;labelBackgroundColor=#ffffff;verticalAlign=top;aspect=fixed;imageAspect=0;image=https://download.logo.wine/logo/Ethereum/Ethereum-Logo.wine.png;" vertex="1" parent="1">
          <mxGeometry x="420" y="1370" width="190" height="126.79" as="geometry" />
        </mxCell>
        <mxCell id="nrVNposP52qdvoXH-JRM-14" value="" style="shape=image;verticalLabelPosition=bottom;labelBackgroundColor=#ffffff;verticalAlign=top;aspect=fixed;imageAspect=0;image=https://i1.wp.com/nownodes.io/images/binance-smart-chain/bsc-logo.png;" vertex="1" parent="1">
          <mxGeometry x="616.62" y="1400" width="76.5" height="76.5" as="geometry" />
        </mxCell>
        <mxCell id="nrVNposP52qdvoXH-JRM-16" value="" style="shape=image;verticalLabelPosition=bottom;labelBackgroundColor=#ffffff;verticalAlign=top;aspect=fixed;imageAspect=0;image=https://cryptologos.cc/logos/polygon-matic-logo.png;" vertex="1" parent="1">
          <mxGeometry x="746.62" y="1398.39" width="70" height="70" as="geometry" />
        </mxCell>
        <mxCell id="nrVNposP52qdvoXH-JRM-17" value="Ethereum" style="text;html=1;strokeColor=none;fillColor=none;align=center;verticalAlign=middle;whiteSpace=wrap;rounded=0;" vertex="1" parent="1">
          <mxGeometry x="471.62" y="1496.79" width="85" height="33.21" as="geometry" />
        </mxCell>
        <mxCell id="nrVNposP52qdvoXH-JRM-18" value="Binance Smart chain&lt;span style=&quot;color: rgba(0 , 0 , 0 , 0) ; font-family: monospace ; font-size: 0px&quot;&gt;%3CmxGraphModel%3E%3Croot%3E%3CmxCell%20id%3D%220%22%2F%3E%3CmxCell%20id%3D%221%22%20parent%3D%220%22%2F%3E%3CmxCell%20id%3D%222%22%20value%3D%22Ethereum%22%20style%3D%22text%3Bhtml%3D1%3BstrokeColor%3Dnone%3BfillColor%3Dnone%3Balign%3Dcenter%3BverticalAlign%3Dmiddle%3BwhiteSpace%3Dwrap%3Brounded%3D0%3B%22%20vertex%3D%221%22%20parent%3D%221%22%3E%3CmxGeometry%20x%3D%22415%22%20y%3D%221496.79%22%20width%3D%2285%22%20height%3D%2233.21%22%20as%3D%22geometry%22%2F%3E%3C%2FmxCell%3E%3C%2Froot%3E%3C%2FmxGraphModel%3E&lt;/span&gt;" style="text;html=1;strokeColor=none;fillColor=none;align=center;verticalAlign=middle;whiteSpace=wrap;rounded=0;" vertex="1" parent="1">
          <mxGeometry x="612.37" y="1496.79" width="85" height="33.21" as="geometry" />
        </mxCell>
        <mxCell id="nrVNposP52qdvoXH-JRM-19" value="Polygon" style="text;html=1;strokeColor=none;fillColor=none;align=center;verticalAlign=middle;whiteSpace=wrap;rounded=0;" vertex="1" parent="1">
          <mxGeometry x="766.62" y="1476.5" width="60" height="33.21" as="geometry" />
        </mxCell>
        <mxCell id="nrVNposP52qdvoXH-JRM-20" value="" style="endArrow=classic;html=1;" edge="1" parent="1">
          <mxGeometry width="50" height="50" relative="1" as="geometry">
            <mxPoint x="696.62" y="1200" as="sourcePoint" />
            <mxPoint x="826.62" y="1200" as="targetPoint" />
          </mxGeometry>
        </mxCell>
        <mxCell id="nrVNposP52qdvoXH-JRM-21" value="Receive" style="text;html=1;strokeColor=none;fillColor=none;align=center;verticalAlign=middle;whiteSpace=wrap;rounded=0;" vertex="1" parent="1">
          <mxGeometry x="726.62" y="1180" width="63.38" height="20" as="geometry" />
        </mxCell>
        <mxCell id="nrVNposP52qdvoXH-JRM-24" value="&lt;ul&gt;&lt;li&gt;account/balance&lt;/li&gt;&lt;li&gt;getAllERC20Balances&lt;/li&gt;&lt;/ul&gt;" style="text;html=1;strokeColor=none;fillColor=none;align=left;verticalAlign=middle;whiteSpace=wrap;rounded=0;" vertex="1" parent="1">
          <mxGeometry x="835" y="1181" width="185" height="39" as="geometry" />
        </mxCell>
        <mxCell id="nrVNposP52qdvoXH-JRM-25" value="" style="shape=image;verticalLabelPosition=bottom;labelBackgroundColor=#ffffff;verticalAlign=top;aspect=fixed;imageAspect=0;image=http://localhost:3000/static/media/main-logo.37fef050.png;" vertex="1" parent="1">
          <mxGeometry x="350" y="150" width="185" height="167.61" as="geometry" />
        </mxCell>
        <mxCell id="nrVNposP52qdvoXH-JRM-26" value="&lt;ul&gt;&lt;li&gt;Fiat Gateway - InstantRampSDKP(()}&lt;br&gt;&lt;b&gt;APIs used&lt;/b&gt;&lt;/li&gt;&lt;li&gt;for values == host-api/assets&lt;/li&gt;&lt;/ul&gt;" style="text;html=1;strokeColor=none;fillColor=none;align=left;verticalAlign=middle;whiteSpace=wrap;rounded=0;" vertex="1" parent="1">
          <mxGeometry x="70" y="742" width="220" height="88" as="geometry" />
        </mxCell>
        <mxCell id="nrVNposP52qdvoXH-JRM-27" value="" style="endArrow=none;html=1;entryX=-0.018;entryY=0.295;entryDx=0;entryDy=0;entryPerimeter=0;" edge="1" parent="1">
          <mxGeometry width="50" height="50" relative="1" as="geometry">
            <mxPoint x="-360" y="520" as="sourcePoint" />
            <mxPoint x="330.00000000000006" y="199.44494999999995" as="targetPoint" />
            <Array as="points">
              <mxPoint x="-360" y="199" />
              <mxPoint x="173.32999999999998" y="200" />
            </Array>
          </mxGeometry>
        </mxCell>
        <mxCell id="nrVNposP52qdvoXH-JRM-28" value="Authentication &amp;amp; Authorization" style="rounded=0;whiteSpace=wrap;html=1;" vertex="1" parent="1">
          <mxGeometry x="-420" y="520" width="120" height="60" as="geometry" />
        </mxCell>
        <mxCell id="nrVNposP52qdvoXH-JRM-29" value="" style="endArrow=classic;html=1;" edge="1" parent="1">
          <mxGeometry width="50" height="50" relative="1" as="geometry">
            <mxPoint x="-360" y="580" as="sourcePoint" />
            <mxPoint x="-360" y="680" as="targetPoint" />
          </mxGeometry>
        </mxCell>
        <mxCell id="nrVNposP52qdvoXH-JRM-30" value="" style="shape=image;verticalLabelPosition=bottom;labelBackgroundColor=#ffffff;verticalAlign=top;aspect=fixed;imageAspect=0;image=https://moralis.io/wp-content/uploads/2021/06/cropped-Moralis-Favicon-Glass.png;" vertex="1" parent="1">
          <mxGeometry x="-391" y="680" width="62" height="62" as="geometry" />
        </mxCell>
        <mxCell id="nrVNposP52qdvoXH-JRM-31" value="Moralis SDK" style="text;html=1;strokeColor=none;fillColor=none;align=center;verticalAlign=middle;whiteSpace=wrap;rounded=0;" vertex="1" parent="1">
          <mxGeometry x="-395" y="750" width="70" height="20" as="geometry" />
        </mxCell>
        <mxCell id="nrVNposP52qdvoXH-JRM-32" value="Send" style="text;html=1;strokeColor=none;fillColor=none;align=center;verticalAlign=middle;whiteSpace=wrap;rounded=0;rotation=-75;" vertex="1" parent="1">
          <mxGeometry x="610" y="1080" width="63.38" height="20" as="geometry" />
        </mxCell>
        <mxCell id="nrVNposP52qdvoXH-JRM-33" value="Receive" style="text;html=1;strokeColor=none;fillColor=none;align=center;verticalAlign=middle;whiteSpace=wrap;rounded=0;rotation=-75;" vertex="1" parent="1">
          <mxGeometry x="651.62" y="1090" width="63.38" height="20" as="geometry" />
        </mxCell>
        <mxCell id="nrVNposP52qdvoXH-JRM-34" value="&lt;ul&gt;&lt;li&gt;&lt;b&gt;Register: &lt;/b&gt;Moralis.User()&lt;/li&gt;&lt;li&gt;&lt;b&gt;Login:&amp;nbsp;&lt;/b&gt;Moralis.User.logIn()&lt;br&gt;&lt;/li&gt;&lt;li&gt;&lt;span&gt;&lt;b&gt;Forgot Password:&amp;nbsp;&lt;/b&gt;Moralis&lt;span&gt;&lt;span class=&quot;prism-token token 1 punctuation &quot;&gt;.&lt;/span&gt;&lt;/span&gt;&lt;span&gt;&lt;span class=&quot;prism-token token 2&quot;&gt;User&lt;/span&gt;&lt;/span&gt;&lt;span&gt;&lt;span class=&quot;prism-token token 3 punctuation &quot;&gt;.&lt;/span&gt;&lt;/span&gt;&lt;span&gt;&lt;span class=&quot;prism-token token 4 function &quot;&gt;requestPasswordReset&lt;/span&gt;&lt;/span&gt;&lt;span&gt;&lt;span class=&quot;prism-token token 5 punctuation &quot;&gt;()&lt;/span&gt;&lt;/span&gt;&lt;br&gt;&lt;/span&gt;&lt;/li&gt;&lt;/ul&gt;" style="text;html=1;strokeColor=none;fillColor=none;align=left;verticalAlign=middle;whiteSpace=wrap;rounded=0;" vertex="1" parent="1">
          <mxGeometry x="-555" y="810" width="390" height="120" as="geometry" />
        </mxCell>
        <mxCell id="nrVNposP52qdvoXH-JRM-35" value="" style="endArrow=classic;html=1;" edge="1" parent="1" target="nrVNposP52qdvoXH-JRM-34">
          <mxGeometry width="50" height="50" relative="1" as="geometry">
            <mxPoint x="-360" y="780" as="sourcePoint" />
            <mxPoint x="-310" y="730" as="targetPoint" />
          </mxGeometry>
        </mxCell>
        <mxCell id="nrVNposP52qdvoXH-JRM-36" value="" style="endArrow=classic;html=1;" edge="1" parent="1">
          <mxGeometry width="50" height="50" relative="1" as="geometry">
            <mxPoint x="392.9999999999999" y="998.2" as="sourcePoint" />
            <mxPoint x="323" y="1140" as="targetPoint" />
          </mxGeometry>
        </mxCell>
        <mxCell id="nrVNposP52qdvoXH-JRM-37" value="" style="endArrow=classic;html=1;" edge="1" parent="1">
          <mxGeometry width="50" height="50" relative="1" as="geometry">
            <mxPoint x="450" y="1000" as="sourcePoint" />
            <mxPoint x="700" y="1200" as="targetPoint" />
            <Array as="points">
              <mxPoint x="560" y="1200" />
            </Array>
          </mxGeometry>
        </mxCell>
        <mxCell id="u1fbbWrBZeRMGrVkOF4U-23" value="" style="shape=image;verticalLabelPosition=bottom;labelBackgroundColor=#ffffff;verticalAlign=top;aspect=fixed;imageAspect=0;image=https://moralis.io/wp-content/uploads/2021/06/cropped-Moralis-Favicon-Glass.png;" parent="1" vertex="1">
          <mxGeometry x="620.62" y="1160" width="62" height="62" as="geometry" />
        </mxCell>
        <mxCell id="nrVNposP52qdvoXH-JRM-41" value="Create Transaction" style="text;html=1;strokeColor=none;fillColor=none;align=center;verticalAlign=middle;whiteSpace=wrap;rounded=0;rotation=-60;" vertex="1" parent="1">
          <mxGeometry x="279.5" y="1048.15" width="105" height="31.85" as="geometry" />
        </mxCell>
        <mxCell id="nrVNposP52qdvoXH-JRM-43" value="&lt;div&gt;&lt;span style=&quot;white-space: pre&quot;&gt;	&lt;/span&gt;&lt;b&gt;ETH, BSC, POLYGON&lt;/b&gt;&lt;br&gt;&lt;/div&gt;&lt;ul&gt;&lt;li&gt;account/balance&lt;/li&gt;&lt;li&gt;getAllERC20Balances&lt;/li&gt;&lt;/ul&gt;" style="text;html=1;strokeColor=none;fillColor=none;align=left;verticalAlign=middle;whiteSpace=wrap;rounded=0;" vertex="1" parent="1">
          <mxGeometry x="-150" y="840" width="185" height="90" as="geometry" />
        </mxCell>
        <mxCell id="nrVNposP52qdvoXH-JRM-44" value="" style="endArrow=classic;html=1;entryX=0.5;entryY=0;entryDx=0;entryDy=0;" edge="1" parent="1" source="u1fbbWrBZeRMGrVkOF4U-8" target="nrVNposP52qdvoXH-JRM-43">
          <mxGeometry width="50" height="50" relative="1" as="geometry">
            <mxPoint x="-110" y="800" as="sourcePoint" />
            <mxPoint x="-350" y="820" as="targetPoint" />
          </mxGeometry>
        </mxCell>
      </root>
    </mxGraphModel>
  </diagram>
</mxfile>
